<svg id="svg" version="1.1" xmlns="http://www.w3.org/2000/svg" xmlns:xlink="http://www.w3.org/1999/xlink" width="400" height="402.5" viewBox="0, 0, 400,402.5"><g id="svgg"><path id="path0" d="M116.550 16.834 C 115.863 17.034,115.076 17.468,114.801 17.798 C 114.527 18.129,113.988 18.400,113.605 18.400 C 113.222 18.400,112.450 18.760,111.891 19.200 C 111.331 19.640,110.705 20.000,110.499 20.000 C 110.293 20.000,109.798 20.360,109.400 20.800 C 109.002 21.240,108.276 21.600,107.787 21.600 C 107.298 21.600,106.672 21.872,106.397 22.204 C 106.121 22.536,104.929 23.089,103.748 23.432 C 102.566 23.776,101.600 24.217,101.600 24.413 C 101.600 24.609,100.900 24.958,100.044 25.188 C 99.126 25.435,98.210 26.030,97.812 26.637 C 97.441 27.203,96.534 27.919,95.796 28.227 C 95.058 28.536,94.342 28.971,94.204 29.194 C 94.066 29.417,93.602 29.600,93.174 29.600 C 92.745 29.600,92.003 30.050,91.525 30.600 C 91.047 31.150,90.328 31.600,89.928 31.600 C 89.528 31.600,88.507 32.293,87.660 33.140 C 86.813 33.987,85.558 34.876,84.870 35.116 C 84.182 35.355,83.032 36.192,82.313 36.976 C 81.594 37.759,80.682 38.400,80.287 38.400 C 79.892 38.400,78.863 39.120,78.000 40.000 C 77.137 40.880,76.200 41.604,75.916 41.609 C 75.632 41.614,74.329 42.688,73.021 43.995 C 71.706 45.308,70.136 46.482,69.512 46.619 C 68.723 46.793,68.141 47.340,67.583 48.434 C 67.143 49.295,66.514 50.000,66.185 50.000 C 65.407 50.000,48.800 66.665,48.800 67.446 C 48.800 67.774,48.275 68.225,47.632 68.449 C 46.850 68.721,46.262 69.342,45.853 70.328 C 45.516 71.138,44.242 72.847,43.021 74.128 C 41.799 75.408,40.800 76.803,40.800 77.228 C 40.800 77.652,40.639 78.000,40.442 78.000 C 39.678 78.000,37.600 80.366,37.600 81.237 C 37.600 81.789,36.971 82.740,36.020 83.627 C 35.151 84.437,34.315 85.601,34.161 86.214 C 34.007 86.827,33.286 87.851,32.560 88.489 C 31.833 89.127,31.115 90.043,30.964 90.525 C 30.814 91.006,30.257 91.919,29.726 92.553 C 28.231 94.341,28.606 94.902,31.400 95.055 C 34.834 95.242,35.035 95.112,36.004 92.081 C 37.882 86.204,37.876 86.206,39.422 90.904 C 40.895 95.380,40.651 95.200,45.249 95.200 C 50.020 95.200,50.048 95.310,46.000 98.225 C 44.240 99.492,42.800 100.680,42.800 100.864 C 42.800 101.049,43.321 102.821,43.958 104.802 C 45.386 109.241,45.184 109.386,41.437 106.614 C 37.794 103.921,38.076 103.921,34.408 106.608 C 30.219 109.677,30.309 109.751,31.971 104.606 C 33.311 100.457,33.423 100.862,30.318 98.603 L 27.912 96.853 26.156 98.712 C 25.190 99.734,24.400 100.802,24.400 101.085 C 24.400 101.368,23.969 102.455,23.443 103.500 C 22.917 104.545,22.080 106.300,21.584 107.400 C 21.088 108.500,20.527 109.670,20.338 110.000 C 20.149 110.330,19.779 111.050,19.515 111.600 C 19.252 112.150,18.713 112.922,18.318 113.316 C 17.923 113.709,17.600 114.434,17.600 114.927 C 17.600 115.419,17.240 116.130,16.800 116.507 C 15.531 117.594,15.834 117.809,18.425 117.663 C 23.523 117.376,23.722 118.024,19.416 120.894 C 15.843 123.276,15.900 123.113,17.255 127.096 C 18.874 131.857,18.741 132.019,15.240 129.549 L 12.280 127.461 11.540 128.375 C 11.133 128.877,10.800 129.874,10.800 130.590 C 10.800 131.306,10.440 132.350,10.000 132.909 C 9.560 133.469,9.200 134.425,9.200 135.035 C 9.200 136.183,8.669 138.083,7.739 140.260 C 7.442 140.954,7.200 142.079,7.200 142.760 C 7.200 143.442,7.049 144.000,6.864 144.000 C 6.306 144.000,5.600 145.946,5.600 147.487 C 5.600 148.285,5.304 149.264,4.942 149.664 C 4.580 150.065,4.195 151.339,4.086 152.496 C 3.978 153.653,3.644 154.955,3.345 155.389 C 3.045 155.823,2.800 156.954,2.800 157.902 C 2.800 158.850,2.530 160.272,2.200 161.062 C 1.299 163.218,1.330 163.240,5.089 163.116 L 8.578 163.000 9.812 159.400 C 10.491 157.420,11.216 155.800,11.423 155.800 C 11.630 155.800,12.360 157.420,13.044 159.400 L 14.288 163.000 18.240 163.116 C 23.381 163.266,23.475 163.475,19.634 166.224 C 15.998 168.828,16.023 168.753,17.400 172.800 C 19.040 177.622,18.926 177.695,14.636 174.562 C 11.151 172.017,11.568 171.992,7.600 174.987 C 4.059 177.661,3.820 177.428,5.387 172.830 C 6.754 168.821,6.727 168.676,4.300 167.135 C 1.496 165.353,1.600 165.368,1.600 166.743 C 1.600 167.408,1.420 168.064,1.200 168.200 C 0.973 168.340,0.800 170.330,0.800 172.800 C 0.800 175.270,0.627 177.260,0.400 177.400 C 0.143 177.559,0.000 183.871,0.000 195.025 L 0.000 212.403 59.100 212.301 L 118.200 212.200 118.298 114.300 C 118.351 60.455,118.261 16.416,118.098 16.436 C 117.934 16.456,117.238 16.635,116.550 16.834 M92.626 45.700 L 93.800 49.400 97.900 49.514 C 102.954 49.655,103.048 49.934,99.000 52.800 C 95.580 55.222,95.653 54.971,97.052 59.456 C 98.332 63.564,98.195 63.754,95.386 61.767 C 90.814 58.533,91.164 58.631,89.162 60.021 C 88.193 60.693,86.721 61.710,85.892 62.280 C 83.811 63.711,83.675 63.292,84.947 59.385 C 86.298 55.237,86.247 55.078,82.785 52.637 C 78.966 49.945,79.089 49.653,84.096 49.514 L 88.192 49.400 89.380 45.700 C 90.034 43.665,90.767 42.000,91.010 42.000 C 91.253 42.000,91.980 43.665,92.626 45.700 M66.162 68.621 L 67.400 72.200 71.196 72.316 C 76.157 72.468,76.269 72.700,72.670 75.361 C 68.846 78.189,69.016 77.704,70.408 81.824 C 72.146 86.966,72.102 86.999,67.852 83.800 C 66.244 82.590,64.742 81.600,64.515 81.600 C 64.287 81.600,62.745 82.590,61.088 83.800 C 56.986 86.796,56.927 86.740,58.615 81.453 C 59.780 77.806,59.900 78.091,55.954 75.166 C 52.540 72.635,52.678 72.400,57.591 72.400 L 61.534 72.400 62.807 68.580 C 64.331 64.005,64.567 64.008,66.162 68.621 M92.396 90.600 C 93.896 95.291,93.777 95.200,98.409 95.200 C 103.223 95.200,103.226 95.214,99.162 98.154 C 95.498 100.803,95.609 100.386,97.215 105.504 C 98.392 109.253,98.243 109.316,94.536 106.643 C 92.825 105.409,91.234 104.400,91.000 104.400 C 90.766 104.400,89.175 105.409,87.464 106.643 C 83.757 109.316,83.608 109.253,84.785 105.504 C 86.391 100.386,86.502 100.803,82.838 98.154 C 78.774 95.214,78.777 95.200,83.591 95.200 C 88.229 95.200,88.168 95.246,89.563 90.666 C 90.897 86.283,91.015 86.280,92.396 90.600 M65.807 113.300 C 67.244 117.720,67.615 118.000,72.044 118.000 C 76.353 118.000,76.369 118.082,72.616 120.822 C 68.916 123.522,69.020 123.203,70.466 127.397 C 71.986 131.806,71.695 132.040,68.016 129.368 C 64.368 126.718,64.481 126.717,60.833 129.390 C 59.201 130.586,57.729 131.480,57.562 131.377 C 57.249 131.183,57.354 130.752,58.764 126.448 C 59.224 125.044,59.600 123.748,59.600 123.568 C 59.600 123.388,58.160 122.199,56.400 120.926 C 52.396 118.030,52.402 118.000,56.971 118.000 C 61.489 118.000,61.653 117.885,62.851 113.876 C 63.604 111.359,64.222 110.000,64.616 110.000 C 64.681 110.000,65.217 111.485,65.807 113.300 M39.619 136.860 C 40.810 140.709,40.945 140.800,45.452 140.800 C 49.853 140.800,49.852 140.791,45.774 143.806 C 44.138 145.016,42.800 146.153,42.800 146.333 C 42.800 146.513,43.250 147.983,43.800 149.600 C 45.517 154.647,45.333 154.831,41.400 152.000 C 39.872 150.900,38.306 150.000,37.919 150.000 C 37.533 150.000,35.983 150.900,34.476 152.000 C 32.968 153.100,31.503 154.000,31.221 154.000 C 30.654 154.000,30.650 154.018,32.122 149.468 C 33.298 145.834,33.436 146.139,29.286 143.228 C 26.040 140.951,26.118 140.800,30.538 140.800 C 34.870 140.800,35.094 140.657,36.158 137.200 C 37.799 131.869,38.066 131.843,39.619 136.860 M92.540 136.408 C 93.893 140.690,94.045 140.800,98.574 140.800 C 102.751 140.800,102.776 140.967,99.007 143.661 C 95.581 146.109,95.668 145.819,97.040 150.220 C 98.426 154.664,98.296 154.776,94.734 152.207 C 91.005 149.518,90.976 149.517,87.562 152.000 C 83.542 154.924,83.483 154.877,85.029 149.984 C 86.278 146.029,86.312 146.127,82.820 143.587 C 79.226 140.973,79.270 140.800,83.524 140.800 C 87.856 140.800,88.058 140.656,89.393 136.626 C 91.032 131.677,91.044 131.676,92.540 136.408 M66.029 159.148 C 67.356 163.316,67.129 163.146,71.571 163.284 C 76.206 163.427,76.313 163.688,72.763 166.200 C 69.062 168.819,69.093 168.733,70.447 172.740 C 72.142 177.754,72.085 177.793,67.712 174.600 C 64.082 171.949,64.799 171.950,61.192 174.592 C 57.030 177.641,56.865 177.500,58.607 172.378 C 59.840 168.753,59.924 168.967,56.211 166.221 C 52.490 163.469,52.611 163.200,57.575 163.200 C 62.061 163.200,61.471 163.715,63.209 158.280 C 64.297 154.877,64.710 155.005,66.029 159.148 M92.583 181.990 C 93.866 186.089,93.719 185.986,98.276 185.994 C 102.989 186.002,103.070 186.264,99.202 188.974 C 95.574 191.517,95.592 191.461,97.000 195.600 C 98.634 200.404,98.538 200.456,94.060 197.188 C 90.833 194.834,91.089 194.818,87.244 197.623 C 83.742 200.179,83.561 200.042,84.921 195.864 C 86.377 191.396,86.426 191.555,82.800 189.000 C 78.726 186.129,78.754 186.049,83.883 185.914 L 88.165 185.800 89.192 182.600 C 91.037 176.852,90.979 176.862,92.583 181.990 M39.421 181.700 C 40.895 186.181,40.651 186.000,45.249 186.000 C 49.990 186.000,50.041 186.151,46.218 188.875 C 42.530 191.503,42.539 191.477,43.971 195.714 C 45.426 200.019,45.201 200.165,41.361 197.411 C 37.620 194.726,38.100 194.727,34.548 197.400 C 30.309 200.591,30.258 200.554,31.963 195.511 C 33.339 191.438,33.342 191.447,29.454 188.796 C 25.824 186.322,25.959 186.051,30.900 185.914 L 35.000 185.800 36.064 182.800 C 36.648 181.150,37.217 179.485,37.326 179.100 C 37.727 177.690,38.359 178.475,39.421 181.700 M94.800 297.015 C 76.210 306.798,56.456 317.187,50.903 320.101 C 39.255 326.214,39.608 325.785,43.100 329.583 C 44.365 330.959,45.580 332.487,45.800 332.979 C 46.020 333.471,46.830 334.499,47.600 335.263 C 48.370 336.028,52.839 340.556,57.531 345.327 C 62.223 350.097,66.322 354.000,66.641 354.000 C 66.959 354.000,67.392 354.452,67.602 355.005 C 67.812 355.558,68.483 356.231,69.092 356.500 C 69.701 356.770,71.059 357.848,72.108 358.895 C 73.158 359.943,74.778 361.291,75.708 361.891 C 76.639 362.492,77.796 363.392,78.281 363.891 C 78.765 364.391,79.467 364.800,79.839 364.800 C 80.212 364.800,81.383 365.610,82.441 366.600 C 83.500 367.590,84.587 368.400,84.857 368.400 C 85.127 368.400,86.202 369.120,87.246 370.000 C 88.290 370.880,89.395 371.600,89.702 371.600 C 90.009 371.600,90.697 372.074,91.230 372.654 C 91.764 373.234,93.144 374.131,94.297 374.648 C 95.450 375.164,96.951 376.119,97.631 376.769 C 98.311 377.419,99.374 378.062,99.992 378.198 C 100.611 378.334,101.434 378.795,101.821 379.223 C 102.207 379.650,102.924 380.000,103.413 380.000 C 103.902 380.000,104.520 380.263,104.787 380.585 C 105.054 380.906,105.661 381.287,106.136 381.432 C 107.630 381.888,111.377 383.726,111.929 384.274 C 112.219 384.564,112.797 384.800,113.213 384.800 C 113.629 384.800,114.291 385.145,114.684 385.568 C 115.078 385.990,115.940 386.464,116.600 386.621 C 117.260 386.779,118.071 387.141,118.402 387.427 C 118.734 387.713,120.604 388.485,122.559 389.142 C 124.514 389.799,126.246 390.551,126.408 390.813 C 126.570 391.075,127.445 391.425,128.351 391.591 L 130.000 391.893 130.000 335.546 C 130.000 282.145,129.963 279.201,129.300 279.214 C 128.915 279.221,113.390 287.231,94.800 297.015 M266.703 336.335 L 266.600 393.471 267.859 393.187 C 268.552 393.031,269.537 392.610,270.048 392.251 C 270.560 391.893,271.419 391.600,271.958 391.600 C 272.496 391.600,273.274 391.295,273.686 390.923 C 274.431 390.248,276.956 389.217,277.892 389.206 C 278.163 389.203,279.873 388.470,281.692 387.578 C 286.620 385.162,287.343 384.795,288.000 384.374 C 288.330 384.163,289.339 383.650,290.242 383.234 C 295.795 380.678,298.800 379.134,298.800 378.839 C 298.800 378.652,299.345 378.391,300.012 378.258 C 300.679 378.124,301.856 377.401,302.629 376.651 C 303.428 375.874,304.759 375.104,305.718 374.862 C 306.648 374.628,308.096 373.803,308.951 373.019 C 309.803 372.239,310.711 371.600,310.969 371.600 C 311.227 371.600,312.141 370.880,313.000 370.000 C 313.859 369.120,314.879 368.400,315.266 368.400 C 315.653 368.400,316.803 367.590,317.821 366.600 C 318.840 365.610,319.989 364.800,320.375 364.800 C 320.760 364.800,321.419 364.418,321.838 363.951 C 322.257 363.484,323.500 362.591,324.600 361.966 C 325.700 361.341,326.812 360.487,327.070 360.068 C 327.549 359.293,333.390 354.400,333.838 354.400 C 334.416 354.400,354.000 334.103,354.000 333.503 C 354.000 333.293,355.203 331.876,356.673 330.354 C 358.305 328.663,359.200 327.444,358.973 327.221 C 358.559 326.817,358.075 326.557,342.200 318.203 C 336.040 314.962,329.200 311.362,327.000 310.204 C 321.757 307.445,300.906 296.482,295.800 293.800 C 292.045 291.827,283.435 287.292,272.743 281.655 C 270.181 280.305,267.797 279.200,267.445 279.200 C 266.862 279.200,266.796 284.277,266.703 336.335 " stroke="none" fill="#002368" fill-rule="evenodd"></path><path id="path1" d="M280.200 18.087 C 277.560 18.265,240.075 18.363,196.900 18.305 L 118.400 18.200 118.400 34.300 C 118.400 46.913,118.508 50.400,118.900 50.400 C 205.347 50.482,332.493 50.339,332.960 50.160 C 334.237 49.670,333.122 48.009,330.378 46.315 C 329.816 45.968,328.351 44.765,327.122 43.642 C 325.893 42.519,324.732 41.600,324.542 41.600 C 324.351 41.600,323.431 40.880,322.497 40.000 C 321.563 39.120,320.502 38.400,320.141 38.400 C 319.779 38.400,318.617 37.590,317.559 36.600 C 316.500 35.610,315.312 34.794,314.917 34.787 C 314.523 34.780,313.485 34.060,312.611 33.187 C 311.737 32.314,310.730 31.600,310.373 31.600 C 310.016 31.600,309.398 31.240,308.999 30.799 C 308.601 30.359,307.178 29.477,305.837 28.839 C 304.497 28.201,302.873 27.124,302.230 26.445 C 301.586 25.766,300.461 25.098,299.730 24.960 C 298.998 24.823,298.400 24.564,298.400 24.384 C 298.400 24.205,297.440 23.698,296.266 23.259 C 295.093 22.820,293.428 22.058,292.566 21.565 C 291.705 21.072,290.460 20.394,289.800 20.058 C 289.140 19.722,288.362 19.212,288.071 18.924 C 287.781 18.636,287.142 18.400,286.651 18.400 C 286.161 18.400,285.589 18.257,285.380 18.083 C 285.171 17.908,282.840 17.910,280.200 18.087 M89.380 45.700 L 88.192 49.400 84.096 49.514 C 79.089 49.653,78.966 49.945,82.785 52.637 C 86.247 55.078,86.298 55.237,84.947 59.385 C 83.675 63.292,83.811 63.711,85.892 62.280 C 86.721 61.710,88.193 60.693,89.162 60.021 C 91.164 58.631,90.814 58.533,95.386 61.767 C 98.195 63.754,98.332 63.564,97.052 59.456 C 95.653 54.971,95.580 55.222,99.000 52.800 C 103.048 49.934,102.954 49.655,97.900 49.514 L 93.800 49.400 92.626 45.700 C 91.980 43.665,91.253 42.000,91.010 42.000 C 90.767 42.000,90.034 43.665,89.380 45.700 M62.807 68.580 L 61.534 72.400 57.591 72.400 C 52.678 72.400,52.540 72.635,55.954 75.166 C 59.900 78.091,59.780 77.806,58.615 81.453 C 56.927 86.740,56.986 86.796,61.088 83.800 C 62.745 82.590,64.287 81.600,64.515 81.600 C 64.742 81.600,66.244 82.590,67.852 83.800 C 72.102 86.999,72.146 86.966,70.408 81.824 C 69.016 77.704,68.846 78.189,72.670 75.361 C 76.269 72.700,76.157 72.468,71.196 72.316 L 67.400 72.200 66.162 68.621 C 64.567 64.008,64.331 64.005,62.807 68.580 M240.800 82.802 C 173.590 82.913,118.553 83.048,118.495 83.102 C 118.438 83.156,118.438 90.355,118.495 99.100 L 118.600 115.000 234.700 115.101 C 328.496 115.182,350.800 115.299,350.800 115.712 C 350.800 115.992,349.315 116.974,347.500 117.894 C 342.802 120.276,314.485 135.145,299.600 143.047 L 291.400 147.400 205.000 147.600 L 118.600 147.800 118.600 163.800 L 118.600 179.800 173.880 179.901 L 229.159 180.003 252.740 167.601 L 276.320 155.200 335.386 155.200 C 375.337 155.200,394.703 155.066,395.226 154.786 C 396.454 154.129,396.021 149.200,394.736 149.200 C 394.551 149.200,394.400 148.433,394.400 147.495 C 394.400 146.557,393.950 144.372,393.400 142.640 C 392.850 140.907,392.399 139.109,392.397 138.644 C 392.396 138.180,392.037 137.260,391.600 136.600 C 391.163 135.940,390.803 134.950,390.800 134.400 C 390.797 133.850,390.437 132.860,390.000 132.200 C 389.563 131.540,389.204 130.425,389.203 129.723 C 389.201 128.940,388.915 128.243,388.463 127.923 C 388.057 127.635,387.620 126.950,387.491 126.400 C 386.696 123.019,386.443 122.404,382.956 115.400 C 382.627 114.740,382.187 113.930,381.978 113.600 C 381.769 113.270,381.134 112.010,380.569 110.800 C 380.003 109.590,379.103 107.682,378.570 106.560 C 378.036 105.438,377.600 104.341,377.600 104.122 C 377.600 103.903,377.256 103.413,376.836 103.033 C 376.416 102.652,375.955 101.876,375.812 101.306 C 375.669 100.737,374.925 99.539,374.159 98.643 C 373.392 97.748,372.569 96.235,372.328 95.281 C 372.033 94.108,371.457 93.201,370.546 92.474 C 369.806 91.883,369.200 91.096,369.200 90.725 C 369.200 90.353,368.643 89.453,367.961 88.725 C 367.280 87.996,366.387 86.635,365.976 85.700 C 365.565 84.765,365.076 84.000,364.890 84.000 C 364.703 84.000,364.202 83.685,363.775 83.300 C 363.039 82.636,356.782 82.610,240.800 82.802 M37.277 88.305 C 37.048 88.907,36.475 90.607,36.004 92.081 C 35.041 95.095,34.895 95.189,31.352 95.086 C 29.079 95.020,27.600 95.534,27.600 96.391 C 27.600 96.552,28.650 97.421,29.934 98.321 C 33.374 100.734,33.298 100.499,31.972 104.602 C 30.308 109.751,30.218 109.677,34.408 106.608 C 38.076 103.921,37.794 103.921,41.437 106.614 C 45.184 109.386,45.386 109.241,43.958 104.802 C 43.321 102.821,42.800 101.049,42.800 100.864 C 42.800 100.680,44.240 99.492,46.000 98.225 C 50.048 95.310,50.020 95.200,45.249 95.200 C 40.651 95.200,40.895 95.380,39.422 90.904 C 38.188 87.157,37.863 86.762,37.277 88.305 M90.643 87.531 C 90.507 87.751,90.020 89.162,89.563 90.666 C 88.168 95.246,88.229 95.200,83.591 95.200 C 78.777 95.200,78.774 95.214,82.838 98.154 C 86.502 100.803,86.391 100.386,84.785 105.504 C 83.608 109.253,83.757 109.316,87.464 106.643 C 89.175 105.409,90.766 104.400,91.000 104.400 C 91.234 104.400,92.825 105.409,94.536 106.643 C 98.243 109.316,98.392 109.253,97.215 105.504 C 95.609 100.386,95.498 100.803,99.162 98.154 C 103.226 95.214,103.223 95.200,98.409 95.200 C 93.777 95.200,93.896 95.291,92.396 90.600 C 91.437 87.599,91.035 86.896,90.643 87.531 M64.104 110.500 C 63.888 110.775,63.324 112.294,62.851 113.876 C 61.653 117.885,61.489 118.000,56.971 118.000 C 52.402 118.000,52.396 118.030,56.400 120.926 C 58.160 122.199,59.600 123.388,59.600 123.568 C 59.600 123.748,59.224 125.044,58.764 126.448 C 57.354 130.752,57.249 131.183,57.562 131.377 C 57.729 131.480,59.201 130.586,60.833 129.390 C 64.481 126.717,64.368 126.718,68.016 129.368 C 71.695 132.040,71.986 131.806,70.466 127.397 C 69.020 123.203,68.916 123.522,72.616 120.822 C 76.369 118.082,76.353 118.000,72.044 118.000 C 67.615 118.000,67.244 117.720,65.807 113.300 C 64.641 109.714,64.677 109.773,64.104 110.500 M16.014 118.374 C 15.786 118.799,15.600 119.356,15.600 119.611 C 15.600 119.865,15.240 120.531,14.800 121.091 C 14.360 121.650,14.000 122.641,14.000 123.292 C 14.000 123.944,13.630 124.997,13.177 125.632 C 12.126 127.108,12.368 127.524,15.612 129.811 C 18.720 132.003,18.851 131.787,17.255 127.096 C 15.919 123.167,15.898 123.236,19.000 121.196 C 23.551 118.202,23.570 117.616,19.114 117.606 C 16.864 117.601,16.361 117.726,16.014 118.374 M37.287 133.850 C 37.038 134.483,36.530 135.990,36.158 137.200 C 35.094 140.657,34.870 140.800,30.538 140.800 C 26.118 140.800,26.040 140.951,29.286 143.228 C 33.436 146.139,33.298 145.834,32.122 149.468 C 30.650 154.018,30.654 154.000,31.221 154.000 C 31.503 154.000,32.968 153.100,34.476 152.000 C 35.983 150.900,37.533 150.000,37.919 150.000 C 38.306 150.000,39.872 150.900,41.400 152.000 C 45.333 154.831,45.517 154.647,43.800 149.600 C 43.250 147.983,42.800 146.513,42.800 146.333 C 42.800 146.153,44.138 145.016,45.774 143.806 C 49.852 140.791,49.853 140.800,45.452 140.800 C 40.945 140.800,40.810 140.709,39.619 136.860 C 38.439 133.050,37.883 132.332,37.287 133.850 M90.645 133.126 C 90.535 133.306,89.971 134.881,89.393 136.626 C 88.058 140.656,87.856 140.800,83.524 140.800 C 79.270 140.800,79.226 140.973,82.820 143.587 C 86.312 146.127,86.278 146.029,85.029 149.984 C 83.483 154.877,83.542 154.924,87.562 152.000 C 90.976 149.517,91.005 149.518,94.734 152.207 C 98.296 154.776,98.426 154.664,97.040 150.220 C 95.668 145.819,95.581 146.109,99.007 143.661 C 102.776 140.967,102.751 140.800,98.574 140.800 C 94.045 140.800,93.893 140.690,92.540 136.408 C 91.458 132.984,91.108 132.378,90.645 133.126 M10.714 156.825 C 10.441 157.581,9.854 159.280,9.409 160.600 L 8.600 163.000 5.200 163.200 C 0.577 163.472,0.224 164.562,3.982 166.956 C 6.753 168.721,6.767 168.782,5.387 172.830 C 3.820 177.428,4.059 177.661,7.600 174.987 C 11.568 171.992,11.151 172.017,14.636 174.562 C 18.926 177.695,19.040 177.622,17.400 172.800 C 16.023 168.753,15.998 168.828,19.634 166.224 C 23.476 163.474,23.382 163.266,18.231 163.116 L 14.271 163.000 13.136 159.621 C 11.734 155.443,11.366 155.019,10.714 156.825 M63.209 158.280 C 61.471 163.715,62.061 163.200,57.575 163.200 C 52.611 163.200,52.490 163.469,56.211 166.221 C 59.924 168.967,59.840 168.753,58.607 172.378 C 56.865 177.500,57.030 177.641,61.192 174.592 C 64.799 171.950,64.082 171.949,67.712 174.600 C 72.085 177.793,72.142 177.754,70.447 172.740 C 69.093 168.733,69.062 168.819,72.763 166.200 C 76.313 163.688,76.206 163.427,71.571 163.284 C 67.129 163.146,67.356 163.316,66.029 159.148 C 64.710 155.005,64.297 154.877,63.209 158.280 M90.523 178.633 C 90.355 179.055,89.757 180.840,89.192 182.600 L 88.165 185.800 83.883 185.914 C 78.754 186.049,78.726 186.129,82.800 189.000 C 86.426 191.555,86.377 191.396,84.921 195.864 C 83.561 200.042,83.742 200.179,87.244 197.623 C 91.089 194.818,90.833 194.834,94.060 197.188 C 98.538 200.456,98.634 200.404,97.000 195.600 C 95.592 191.461,95.574 191.517,99.202 188.974 C 103.070 186.264,102.989 186.002,98.276 185.994 C 93.719 185.986,93.866 186.089,92.583 181.990 C 91.394 178.190,90.971 177.501,90.523 178.633 M37.326 179.100 C 37.217 179.485,36.648 181.150,36.064 182.800 L 35.000 185.800 30.900 185.914 C 25.959 186.051,25.824 186.322,29.454 188.796 C 33.342 191.447,33.339 191.438,31.963 195.511 C 30.258 200.554,30.309 200.591,34.548 197.400 C 38.100 194.727,37.620 194.726,41.361 197.411 C 45.201 200.165,45.426 200.019,43.971 195.714 C 42.539 191.477,42.530 191.503,46.218 188.875 C 50.041 186.151,49.990 186.000,45.249 186.000 C 40.651 186.000,40.895 186.181,39.421 181.700 C 38.359 178.475,37.727 177.690,37.326 179.100 M-0.000 219.320 C -0.000 223.126,0.168 226.411,0.374 226.620 C 0.580 226.829,0.841 228.800,0.954 231.000 C 1.256 236.866,1.816 241.596,2.411 243.300 L 2.934 244.800 53.867 244.800 C 102.787 244.800,106.210 244.876,104.100 245.917 C 98.484 248.689,70.000 263.871,70.000 264.093 C 70.000 264.259,82.450 264.441,97.667 264.497 C 116.113 264.566,125.379 264.737,125.470 265.010 C 125.545 265.235,119.530 268.614,112.103 272.517 C 26.348 317.589,31.856 314.574,33.261 315.689 C 33.615 315.970,34.018 316.690,34.157 317.288 C 34.296 317.887,35.127 319.041,36.005 319.852 C 36.882 320.664,37.600 321.659,37.600 322.063 C 37.600 322.467,38.213 323.448,38.962 324.242 L 40.323 325.685 67.662 311.298 C 123.484 281.922,128.716 279.200,129.351 279.200 C 129.947 279.200,130.000 283.836,130.000 335.436 L 130.000 391.672 130.900 392.423 C 131.395 392.836,132.163 393.179,132.606 393.187 C 133.049 393.194,134.084 393.560,134.904 394.000 C 135.725 394.440,136.844 394.800,137.390 394.800 C 137.936 394.800,139.724 395.250,141.362 395.800 C 143.001 396.350,145.034 396.800,145.882 396.800 C 146.927 396.800,147.642 397.057,148.107 397.600 C 148.606 398.182,149.287 398.400,150.612 398.400 C 151.829 398.400,152.806 398.676,153.558 399.232 C 154.254 399.747,155.126 400.014,155.842 399.932 L 157.000 399.800 157.000 318.600 L 157.000 237.400 139.258 237.200 C 119.052 236.972,120.018 237.249,127.000 233.687 C 140.065 227.022,165.779 213.264,165.911 212.868 C 166.029 212.512,146.271 212.400,83.033 212.400 L 0.000 212.400 -0.000 219.320 M239.821 237.566 C 239.416 238.221,239.575 400.535,239.981 400.941 C 240.218 401.178,240.734 401.073,241.365 400.659 C 241.927 400.291,243.175 400.000,244.190 400.000 C 245.513 400.000,246.194 399.782,246.693 399.200 C 247.200 398.607,247.873 398.400,249.289 398.400 C 250.667 398.400,251.423 398.177,252.000 397.600 C 252.548 397.052,253.336 396.799,254.500 396.797 C 255.435 396.796,257.522 396.346,259.138 395.797 C 260.754 395.249,262.587 394.800,263.210 394.800 C 263.833 394.800,264.581 394.565,264.871 394.278 C 265.162 393.990,265.715 393.636,266.100 393.490 C 266.762 393.239,266.800 390.143,266.800 336.213 C 266.800 284.124,266.855 279.200,267.443 279.200 C 267.796 279.200,270.181 280.305,272.743 281.655 C 283.435 287.292,292.045 291.827,295.800 293.800 C 300.906 296.482,321.757 307.445,327.000 310.204 C 329.200 311.362,336.040 314.961,342.200 318.202 C 348.360 321.443,354.705 324.794,356.300 325.648 C 357.895 326.502,359.203 327.066,359.206 326.901 C 359.209 326.735,359.925 325.809,360.797 324.841 C 361.670 323.874,362.500 322.704,362.643 322.241 C 362.786 321.779,363.690 320.553,364.651 319.517 C 365.613 318.482,366.400 317.389,366.400 317.089 C 366.400 316.789,367.030 315.808,367.800 314.908 C 368.570 314.009,369.200 313.044,369.200 312.765 C 369.200 312.485,369.820 311.689,370.577 310.995 C 371.476 310.172,372.114 309.103,372.412 307.918 C 372.663 306.920,373.419 305.500,374.091 304.765 C 374.763 304.029,375.570 302.881,375.884 302.213 C 376.198 301.546,376.888 300.280,377.418 299.400 C 378.560 297.503,379.200 296.109,379.200 295.521 C 379.200 295.286,379.573 294.491,380.028 293.755 C 380.802 292.503,380.797 291.600,380.016 291.600 C 379.831 291.600,371.426 287.262,361.339 281.959 C 351.253 276.657,340.210 270.871,336.800 269.102 C 330.026 265.588,329.095 264.969,330.045 264.604 C 333.958 263.102,390.400 264.851,390.400 266.474 C 390.400 266.653,390.741 266.800,391.157 266.800 C 391.964 266.800,392.400 266.062,392.400 264.696 C 392.400 263.865,392.808 262.408,393.857 259.492 C 394.156 258.662,394.400 257.251,394.400 256.355 C 394.400 255.332,394.697 254.348,395.200 253.709 C 395.700 253.073,396.003 252.075,396.009 251.046 C 396.014 250.031,396.318 249.017,396.800 248.400 C 397.303 247.757,397.589 246.757,397.600 245.600 C 397.611 244.443,397.897 243.443,398.400 242.800 C 398.966 242.077,399.185 241.165,399.191 239.504 L 399.200 237.208 319.625 237.202 C 271.314 237.198,239.960 237.341,239.821 237.566 M14.100 277.482 C 13.155 277.664,12.923 278.182,13.600 278.600 C 13.820 278.736,14.000 279.394,14.000 280.062 C 14.000 280.730,14.327 281.754,14.727 282.338 C 15.127 282.922,15.668 284.144,15.929 285.053 C 16.190 285.961,16.673 286.928,17.002 287.202 C 17.331 287.475,17.600 288.067,17.600 288.517 C 17.600 291.139,18.277 290.983,27.113 286.314 C 31.671 283.906,37.155 281.036,39.300 279.936 C 41.445 278.837,43.200 277.771,43.200 277.569 C 43.200 277.207,15.951 277.126,14.100 277.482 " stroke="none" fill="#ffffff" fill-rule="evenodd"></path><path id="path2" d="M176.436 0.556 C 176.110 0.950,174.698 1.156,171.602 1.262 C 168.850 1.356,167.045 1.595,166.734 1.906 C 166.449 2.191,165.197 2.400,163.770 2.400 C 162.412 2.400,160.535 2.670,159.600 3.000 C 158.665 3.330,157.152 3.600,156.239 3.600 C 155.325 3.600,154.223 3.843,153.789 4.141 C 153.355 4.438,152.010 4.795,150.800 4.934 C 149.590 5.072,148.420 5.432,148.200 5.732 C 147.980 6.033,146.825 6.373,145.633 6.487 C 144.215 6.623,143.289 6.937,142.955 7.394 C 142.643 7.821,141.785 8.141,140.747 8.219 C 139.813 8.289,138.678 8.513,138.225 8.717 C 136.809 9.356,134.577 10.000,133.772 10.003 C 133.347 10.004,132.460 10.363,131.800 10.800 C 131.140 11.237,130.015 11.596,129.300 11.597 C 128.559 11.599,127.673 11.927,127.239 12.361 C 126.821 12.779,126.056 13.253,125.539 13.414 C 125.023 13.576,124.245 13.954,123.811 14.254 C 123.377 14.554,122.577 14.800,122.032 14.800 C 120.781 14.800,117.988 16.704,118.248 17.380 C 118.612 18.331,123.697 18.394,199.437 18.397 C 284.521 18.400,288.562 18.320,283.100 16.740 C 282.165 16.470,280.971 15.923,280.446 15.524 C 279.921 15.126,278.886 14.800,278.146 14.800 C 277.406 14.800,276.800 14.638,276.800 14.439 C 276.800 14.241,276.252 13.887,275.581 13.653 C 274.911 13.420,273.897 12.862,273.327 12.414 C 272.758 11.966,271.859 11.600,271.330 11.600 C 270.801 11.600,269.662 11.240,268.800 10.800 C 267.938 10.360,266.873 10.000,266.435 10.000 C 265.996 10.000,265.224 9.839,264.719 9.642 C 264.213 9.446,262.720 8.973,261.400 8.591 C 260.080 8.209,258.260 7.560,257.356 7.148 C 256.452 6.737,255.026 6.400,254.188 6.400 C 253.325 6.400,252.343 6.110,251.925 5.732 C 251.502 5.349,250.257 4.988,249.002 4.884 C 247.800 4.784,246.611 4.454,246.359 4.151 C 246.107 3.847,245.161 3.598,244.251 3.596 C 243.343 3.593,241.716 3.323,240.636 2.996 C 239.556 2.668,237.576 2.394,236.236 2.387 C 234.731 2.379,233.503 2.150,233.024 1.787 C 232.473 1.371,231.188 1.200,228.600 1.200 C 226.012 1.200,224.727 1.029,224.176 0.613 C 223.044 -0.244,177.145 -0.298,176.436 0.556 M333.131 50.015 C 332.699 50.266,294.352 50.405,225.431 50.404 L 118.400 50.402 118.400 66.701 L 118.400 83.000 240.469 82.898 C 307.606 82.842,362.593 82.740,362.662 82.672 C 363.054 82.280,361.837 79.716,360.619 78.369 C 359.839 77.505,359.200 76.556,359.200 76.260 C 359.200 75.964,358.132 74.703,356.826 73.457 C 355.520 72.212,354.331 70.813,354.184 70.348 C 354.036 69.884,353.305 68.911,352.558 68.185 C 351.811 67.460,351.200 66.693,351.200 66.481 C 351.200 66.269,350.615 65.648,349.900 65.101 C 348.811 64.268,344.669 60.137,335.900 51.139 C 334.284 49.481,334.144 49.424,333.131 50.015 M118.400 131.400 L 118.400 147.800 204.900 147.600 L 291.400 147.400 299.600 143.047 C 314.485 135.145,342.802 120.276,347.500 117.894 C 349.315 116.974,350.800 115.992,350.800 115.712 C 350.800 115.301,328.396 115.183,234.600 115.101 L 118.400 115.000 118.400 131.400 M395.200 154.800 C 394.820 155.046,372.951 155.190,335.460 155.194 L 276.320 155.200 252.737 167.603 L 229.154 180.006 173.786 179.903 L 118.417 179.800 118.309 196.100 L 118.200 212.400 142.133 212.400 C 160.234 212.400,166.029 212.514,165.911 212.868 C 165.779 213.264,140.065 227.022,127.000 233.687 C 120.018 237.249,119.052 236.972,139.258 237.200 L 157.000 237.400 157.000 318.700 C 157.000 384.813,157.096 400.000,157.516 400.000 C 157.800 400.000,158.700 400.338,159.516 400.750 C 161.948 401.980,166.540 402.131,200.400 402.096 C 235.262 402.059,240.206 401.915,239.833 400.943 C 239.534 400.162,239.521 238.051,239.821 237.566 C 239.960 237.341,271.270 237.199,319.525 237.204 L 399.000 237.211 399.369 235.506 C 399.842 233.317,399.830 171.144,399.355 165.800 C 399.115 163.100,398.773 161.479,398.300 160.811 C 397.894 160.238,397.600 159.096,397.600 158.097 C 397.600 155.536,396.468 153.981,395.200 154.800 M2.800 246.151 C 2.800 246.894,3.048 247.708,3.351 247.959 C 3.654 248.211,3.984 249.400,4.084 250.602 C 4.183 251.804,4.541 253.105,4.879 253.494 C 5.217 253.882,5.601 255.170,5.734 256.355 C 5.867 257.540,6.251 258.814,6.588 259.186 C 6.924 259.559,7.200 260.272,7.200 260.771 C 7.200 261.270,7.450 262.246,7.757 262.940 C 8.265 264.091,8.724 265.773,9.409 268.996 C 9.549 269.654,9.828 270.294,10.029 270.418 C 10.230 270.542,10.560 271.529,10.762 272.610 C 10.964 273.692,11.315 274.638,11.542 274.714 C 11.769 274.790,12.144 275.425,12.375 276.126 L 12.796 277.400 27.998 277.274 C 44.200 277.140,44.599 277.192,41.100 279.002 C 18.137 290.879,18.312 290.764,20.000 292.909 C 20.440 293.469,20.800 294.139,20.800 294.400 C 20.800 294.661,21.160 295.331,21.600 295.891 C 22.040 296.450,22.400 297.162,22.400 297.472 C 22.400 297.783,22.850 298.882,23.400 299.915 C 23.950 300.948,24.400 302.101,24.400 302.476 C 24.400 302.852,25.023 303.634,25.784 304.215 C 26.546 304.796,27.287 305.660,27.432 306.136 C 28.006 308.019,29.180 310.258,29.969 310.972 C 30.426 311.386,30.800 311.942,30.800 312.208 C 30.800 313.416,32.462 314.868,33.145 314.257 C 33.505 313.936,47.480 306.485,64.200 297.700 C 121.723 267.478,125.602 265.407,125.468 265.004 C 125.380 264.738,115.859 264.565,97.667 264.497 C 82.450 264.441,70.000 264.259,70.000 264.093 C 70.000 263.871,98.484 248.689,104.100 245.917 C 106.210 244.876,102.784 244.800,53.800 244.800 L 2.800 244.800 2.800 246.151 M329.817 264.772 C 329.517 265.258,330.074 265.604,336.800 269.097 C 339.770 270.640,349.310 275.636,358.000 280.200 C 366.690 284.763,375.304 289.286,377.141 290.250 L 380.482 292.003 381.173 291.102 C 381.973 290.058,384.621 284.675,384.448 284.445 C 384.384 284.359,384.507 284.179,384.721 284.045 C 385.259 283.706,386.397 280.886,386.413 279.851 C 386.420 279.383,386.690 278.651,387.013 278.224 C 387.336 277.796,387.600 277.075,387.600 276.620 C 387.600 276.165,387.960 275.568,388.400 275.293 C 388.919 274.969,389.200 274.360,389.200 273.560 C 389.200 272.881,389.560 271.869,390.000 271.309 C 390.440 270.750,390.800 269.722,390.800 269.026 C 390.800 268.330,391.016 267.544,391.280 267.280 C 391.653 266.907,391.609 266.800,391.080 266.800 C 390.706 266.800,390.400 266.653,390.400 266.474 C 390.400 264.747,330.866 263.075,329.817 264.772 " stroke="none" fill="#d00c27" fill-rule="evenodd"></path></g></svg>