<svg xmlns="http://www.w3.org/2000/svg" width="30.536" height="26.388" viewBox="0 0 30.536 26.388">
  <g id="Grupo_2" data-name="Grupo 2" transform="translate(-360.394 -181.604)">
    <path id="Caminho_34" data-name="Caminho 34" d="M36.82,25.54v-.11c-1-2.24-2-5-.32-6.73s3.85-1.29,4.9-2.58c1.31-1.62.81-2.78.24-4.33a1.422,1.422,0,0,0-.11-.33c-.5-1.77.43-3,2.15-3.9s3.72-2.39,6-1.55" transform="translate(338 181.6)" fill="none" stroke="#000" stroke-miterlimit="10" stroke-width="1"/>
    <path id="Caminho_35" data-name="Caminho 35" d="M41.17,25.83c-1-1.33-1.84-2.27-1.5-3.8a3.25,3.25,0,0,1,2-2.3A12.37,12.37,0,0,0,45.16,18c1.72-2-.89-4.88.73-7.17C47.22,9,49,9.14,51.51,9h.28" transform="translate(338 181.6)" fill="none" stroke="#000" stroke-miterlimit="10" stroke-width="1"/>
    <path id="Caminho_36" data-name="Caminho 36" d="M44.92,24.89c-1.56-.81-1.35-2.71.27-3.44,1.31-.59,3-.31,3.54-1.21,1-1.5-.82-4.65.18-6.23a3.18,3.18,0,0,1,3.44-1.56" transform="translate(338 181.6)" fill="none" stroke="#000" stroke-miterlimit="10" stroke-width="1"/>
    <path id="Caminho_37" data-name="Caminho 37" d="M34,2.82a12.17,12.17,0,0,1,4.95-1.54A12.3,12.3,0,0,1,49.73,5.92,11.73,11.73,0,0,1,51.51,9a12.3,12.3,0,0,1-6.6,15.89,11.9,11.9,0,0,1-3.74.95,12.16,12.16,0,0,1-4.4-.4,12.33,12.33,0,0,1-9-13.11" transform="translate(338 181.6)" fill="none" stroke="#000" stroke-miterlimit="10" stroke-width="1"/>
    <path id="Caminho_38" data-name="Caminho 38" d="M32.48,4.81l1.75,1.33-1.51,2L31.9,9.21a2.73,2.73,0,0,1-3.41.76,3,3,0,0,1-.38-.24A2.72,2.72,0,0,1,27,7.56a2.66,2.66,0,0,1,.55-1.62l.84-1.11,1.49-2Z" transform="translate(338 181.6)" fill="none" stroke="#000" stroke-miterlimit="10" stroke-width="1"/>
    <path id="Caminho_39" data-name="Caminho 39" d="M38.45,12.56,32.72,8.13l-4.29-3.3L22.7.4" transform="translate(338 181.6)" fill="none" stroke="#000" stroke-miterlimit="10" stroke-width="1"/>
  </g>
</svg>
