<?xml version="1.0" encoding="iso-8859-1"?>
<!-- Generator: Adobe Illustrator 19.0.0, SVG Export Plug-In . SVG Version: 6.00 Build 0)  -->
<svg version="1.1" id="Capa_1" xmlns="http://www.w3.org/2000/svg" xmlns:xlink="http://www.w3.org/1999/xlink" x="0px" y="0px"
	 viewBox="0 0 512 512" style="enable-background:new 0 0 512 512;" xml:space="preserve">
<path style="fill:#E0230D;" d="M256,7.5v387c22.09,0,40-17.91,40-40v-307C296,25.41,278.09,7.5,256,7.5z"/>
<path style="fill:#FF5440;" d="M256,7.5c5.52,0,10,17.91,10,40v307c0,22.09-4.48,40-10,40c-22.09,0-40-17.91-40-40v-307
	C216,25.41,233.91,7.5,256,7.5z"/>
<path style="fill:#E0230D;" d="M256,424.5v80c22.09,0,40-17.91,40-40S278.09,424.5,256,424.5z"/>
<path style="fill:#FF5440;" d="M256,424.5c5.52,0,10,17.91,10,40s-4.48,40-10,40c-22.09,0-40-17.91-40-40S233.91,424.5,256,424.5z"
	/>
<path d="M256,0c-26.191,0-47.5,21.309-47.5,47.5V186c0,4.143,3.357,7.5,7.5,7.5s7.5-3.357,7.5-7.5V47.5
	c0-17.921,14.579-32.5,32.5-32.5s32.5,14.579,32.5,32.5v307c0,17.921-14.579,32.5-32.5,32.5s-32.5-14.579-32.5-32.5V216
	c0-4.143-3.357-7.5-7.5-7.5s-7.5,3.357-7.5,7.5v138.5c0,26.191,21.309,47.5,47.5,47.5s47.5-21.309,47.5-47.5v-307
	C303.5,21.309,282.191,0,256,0z"/>
<path d="M256,417c-26.191,0-47.5,21.309-47.5,47.5S229.809,512,256,512s47.5-21.309,47.5-47.5S282.191,417,256,417z M256,497
	c-17.921,0-32.5-14.579-32.5-32.5S238.079,432,256,432s32.5,14.579,32.5,32.5S273.921,497,256,497z"/>
<g>
</g>
<g>
</g>
<g>
</g>
<g>
</g>
<g>
</g>
<g>
</g>
<g>
</g>
<g>
</g>
<g>
</g>
<g>
</g>
<g>
</g>
<g>
</g>
<g>
</g>
<g>
</g>
<g>
</g>
</svg>
