<?xml version="1.0" encoding="UTF-8" standalone="no"?><!-- Generator: Gravit.io --><svg xmlns="http://www.w3.org/2000/svg" xmlns:xlink="http://www.w3.org/1999/xlink" style="isolation:isolate" viewBox="0 0 1920 900" width="1920pt" height="900pt"><defs><clipPath id="_clipPath_kujMxiyx2lFAgUISoQ0zOrMT5g7ZYedE"><rect width="1920" height="900"/></clipPath></defs><g clip-path="url(#_clipPath_kujMxiyx2lFAgUISoQ0zOrMT5g7ZYedE)"><path d=" M 650.573 128.904 L 650.573 793.662 C 650.573 810.339 664.112 823.879 680.789 823.879 L 789.32 823.879 C 805.997 823.879 819.536 810.339 819.536 793.662 L 819.536 128.904 C 819.536 112.227 805.997 98.688 789.32 98.688 L 680.789 98.688 C 664.112 98.688 650.573 112.227 650.573 128.904 Z " fill="rgb(255,255,255)"/><path d=" M 1198.015 823.879 L 1786.341 823.879 C 1807.44 823.879 1815.743 809.641 1804.871 792.104 L 1383.13 111.828 C 1372.258 94.291 1354.638 94.311 1343.808 111.872 L 924.305 792.061 L 924.305 792.061 C 913.475 809.622 921.811 823.879 942.911 823.879 L 1069.485 823.879 C 1085.909 823.879 1106.251 812.536 1114.885 798.565 L 1357.956 405.211 C 1361.419 399.597 1367.052 399.591 1370.528 405.197 L 1521.157 648.025 C 1524.632 653.631 1521.978 658.183 1515.233 658.183 L 1298.752 657.53 C 1286.661 657.493 1271.48 665.685 1264.873 675.811 L 1184.519 798.958 C 1175.544 812.712 1181.591 823.879 1198.015 823.879 Z " fill="rgb(255,255,255)"/><path d=" M 417.277 821.99 L 140.565 821.99 C 123.888 821.99 110.349 808.451 110.349 791.774 L 110.349 128.904 C 110.349 112.228 123.888 98.688 140.565 98.688 L 249.399 98.688 C 266.076 98.688 279.615 112.228 279.615 128.904 L 279.615 624.608 C 279.615 641.285 293.155 654.825 309.832 654.825 L 522.634 654.825 C 539.311 654.825 545.631 666.279 536.739 680.387 L 463.604 796.428 C 454.712 810.536 433.953 821.99 417.277 821.99 Z " fill="rgb(255,255,255)"/></g></svg>