<svg id="Capa_1" enable-background="new 0 0 512 512" height="512" viewBox="0 0 512 512" width="512" xmlns="http://www.w3.org/2000/svg"><g><g><path d="m496.59 417.6c3.45 6.36 5.41 13.65 5.41 21.4 0 24.85-20.15 45-45 45h-402c-24.85 0-45-20.15-45-45 0-7.75 1.96-15.04 5.41-21.4l201-366c7.61-14.06 22.48-23.6 39.59-23.6s31.98 9.54 39.59 23.6z" fill="#ffdb43"/><g fill="#8690af"><path d="m226 364h60v60h-60z"/><path d="m226 154h60v150h-60z"/></g></g><g><path d="m216 424c0 5.523 4.478 10 10 10h60c5.522 0 10-4.477 10-10v-60c0-5.523-4.478-10-10-10h-60c-5.522 0-10 4.477-10 10zm20-50h40v40h-40z"/><path d="m226 314h60c5.522 0 10-4.477 10-10v-150c0-5.523-4.478-10-10-10h-60c-5.522 0-10 4.477-10 10v150c0 5.523 4.478 10 10 10zm10-150h40v130h-40z"/><circle cx="256" cy="484" r="10"/><path d="m304.385 46.84c-9.628-17.789-28.168-28.84-48.385-28.84s-38.757 11.051-48.355 28.787l-201.025 366.045c-4.331 7.983-6.62 17.032-6.62 26.168 0 30.327 24.673 55 55 55h156c5.522 0 10-4.477 10-10s-4.478-10-10-10h-156c-19.299 0-35-15.701-35-35 0-5.815 1.452-11.566 4.176-16.586l201.029-366.054c6.129-11.325 17.929-18.36 30.795-18.36s24.666 7.035 30.824 18.414l200.976 365.955c2.748 5.065 4.2 10.816 4.2 16.631 0 19.299-15.701 35-35 35h-156c-5.522 0-10 4.477-10 10s4.478 10 10 10h156c30.327 0 55-24.673 55-55 0-9.136-2.289-18.185-6.645-26.213z"/></g></g></svg>