<svg height="376.49067pt" viewBox="0 0 376.49067 376.49067" width="376.49067pt" xmlns="http://www.w3.org/2000/svg"><path d="m361.726562 301.375-286.613281-286.613281c-12.5-12.5-32.765625-12.5-45.246093 0l-15.105469 15.082031c-12.5 12.503906-12.5 32.769531 0 45.25l286.613281 286.613281c12.503906 12.5 32.769531 12.5 45.25 0l15.082031-15.082031c12.523438-12.480469 12.523438-32.746094.019531-45.25zm0 0" fill="#f44336"/><path d="m301.375 14.761719-286.613281 286.613281c-12.5 12.503906-12.5 32.769531 0 45.25l15.082031 15.082031c12.503906 12.5 32.769531 12.5 45.25 0l286.632812-286.59375c12.503907-12.5 12.503907-32.765625 0-45.246093l-15.082031-15.082032c-12.5-12.523437-32.765625-12.523437-45.269531-.023437zm0 0" fill="#f44336"/><path d="m316.457031 376.46875c-9.554687 0-19.132812-3.648438-26.429687-10.921875l-101.78125-101.761719-101.761719 101.761719c-14.632813 14.589844-38.335937 14.589844-52.90625 0l-22.632813-22.636719c-14.570312-14.570312-14.59375-38.3125-.023437-52.882812l101.78125-101.78125-101.757813-101.761719c-14.59375-14.589844-14.59375-38.335937 0-52.90625l22.632813-22.632813c14.570313-14.570312 38.292969-14.59375 52.886719-.023437l101.78125 101.804687 101.757812-101.78125c14.636719-14.59375 38.335938-14.59375 52.90625 0l22.636719 22.632813c14.589844 14.59375 14.589844 38.335937 0 52.90625l-101.761719 101.761719 101.761719 101.757812s.019531 0 .019531.023438c14.570313 14.589844 14.550782 38.335937-.019531 52.882812l-22.636719 22.636719c-7.292968 7.273437-16.871094 10.921875-26.453125 10.921875zm-128.210937-151.316406c4.09375 0 8.191406 1.558594 11.304687 4.691406l113.066407 113.066406c2.09375 2.09375 5.589843 2.09375 7.660156 0l22.632812-22.632812c2.09375-2.089844 2.070313-5.589844-.019531-7.679688l-113.046875-113.046875c-6.25-6.25-6.25-16.382812 0-22.632812l113.066406-113.066407c2.09375-2.089843 2.09375-5.589843 0-7.660156l-22.632812-22.613281c-2.089844-2.089844-5.566406-2.070313-7.679688.023437l-113.046875 113.066407c-5.992187 5.992187-16.617187 5.992187-22.632812 0l-113.046875-113.089844c-2.089844-2.089844-5.589844-2.089844-7.65625 0l-22.636719 22.636719c-2.089844 2.089844-2.089844 5.585937 0 7.65625l113.066406 113.066406c6.25 6.25 6.25 16.386719 0 22.636719l-113.066406 113.066406c-2.070313 2.089844-2.089844 5.589844 0 7.65625l22.636719 22.636719c2.089844 2.089844 5.566406 2.070312 7.679687-.023438l113.042969-113.042968c3.117188-3.136719 7.210938-4.714844 11.308594-4.714844zm0 0"/></svg>